<?xml version="1.0" encoding="utf-8"?>
<!-- Generator: Adobe Illustrator 21.0.2, SVG Export Plug-In . SVG Version: 6.00 Build 0)  -->
<svg version="1.1" xmlns="http://www.w3.org/2000/svg" xmlns:xlink="http://www.w3.org/1999/xlink" x="0px" y="0px"
	 viewBox="0 0 1920 500" style="enable-background:new 0 0 1920 500;" xml:space="preserve">
<style type="text/css">
	.st0{display:none;}
	.st1{display:inline;}
	.st2{fill:#30A7E9;}
	.st3{fill:none;stroke:#E3F6FF;stroke-width:2;stroke-linejoin:round;stroke-miterlimit:10;}
	.st4{fill:#61CFFF;}
	.st5{clip-path:url(#SVGID_2_);}
	.st6{clip-path:url(#SVGID_4_);}
	.st7{fill:#FFFFFF;}
	.st8{fill:#E3F6FF;}
	.st9{fill:#FFFFFF;stroke:#E3F6FF;stroke-width:1.9344;stroke-linecap:round;stroke-linejoin:round;stroke-miterlimit:10;}
</style>
<g id="nuvens_backup" class="st0">
	<g class="st1">
		<circle class="st2" cx="0" cy="446.6" r="99"/>
		<circle class="st2" cx="451.5" cy="469.3" r="99"/>
		<circle class="st2" cx="1920" cy="446.6" r="99"/>
		<circle class="st2" cx="123.1" cy="446.6" r="65.2"/>
		<circle class="st2" cx="166.6" cy="487.1" r="65.2"/>
		<circle class="st2" cx="265.6" cy="434.8" r="65.2"/>
		<circle class="st2" cx="246.5" cy="487.1" r="65.2"/>
		<circle class="st2" cx="577.6" cy="489" r="65.2"/>
		<circle class="st2" cx="656.5" cy="448.5" r="65.2"/>
		<circle class="st2" cx="950.4" cy="476.1" r="62.1"/>
		<circle class="st2" cx="1032.1" cy="451.2" r="65.2"/>
		<circle class="st2" cx="1134.8" cy="492.8" r="91.9"/>
		<circle class="st2" cx="1185.4" cy="435.5" r="48.4"/>
		<circle class="st2" cx="1254.4" cy="489" r="48.4"/>
		<circle class="st2" cx="1489.8" cy="476.1" r="48.4"/>
		<circle class="st2" cx="1346.5" cy="498" r="70.3"/>
		<circle class="st2" cx="1429" cy="476.1" r="70.3"/>
		<circle class="st2" cx="1625.5" cy="480.3" r="70.3"/>
		<circle class="st2" cx="1789.5" cy="472.2" r="70.3"/>
		<circle class="st2" cx="866.5" cy="487.1" r="65.2"/>
		<circle class="st2" cx="763" cy="500.8" r="65.2"/>
		<circle class="st2" cx="819.2" cy="439" r="44.9"/>
		<circle class="st2" cx="1538.3" cy="498" r="44.9"/>
		<circle class="st2" cx="1713.9" cy="464.1" r="44.9"/>
		<circle class="st2" cx="708.5" cy="469.3" r="44.9"/>
		<circle class="st2" cx="345.1" cy="438.9" r="50.1"/>
		<circle class="st2" cx="324.2" cy="476.1" r="50.1"/>
	</g>
</g>
<g id="back">
	<g>
		<g>
			<line class="st3" x1="943.9" y1="330" x2="952.9" y2="330"/>
			<line class="st3" x1="948.4" y1="334.5" x2="948.4" y2="325.5"/>
		</g>
		<g>
			<line class="st3" x1="943.9" y1="429" x2="952.9" y2="429"/>
			<line class="st3" x1="948.4" y1="433.5" x2="948.4" y2="424.5"/>
		</g>
		<g>
			<line class="st3" x1="1026.9" y1="379.4" x2="1035.9" y2="379.4"/>
			<line class="st3" x1="1031.4" y1="383.9" x2="1031.4" y2="374.9"/>
		</g>
		<g>
			<line class="st3" x1="861.8" y1="379.4" x2="870.8" y2="379.4"/>
			<line class="st3" x1="866.3" y1="383.9" x2="866.3" y2="374.9"/>
		</g>
	</g>
	<g>
		<g>
			<line class="st3" x1="673.4" y1="329.9" x2="682.4" y2="329.9"/>
			<line class="st3" x1="677.9" y1="334.4" x2="677.9" y2="325.4"/>
		</g>
		<g>
			<line class="st3" x1="673.4" y1="428.9" x2="682.4" y2="428.9"/>
			<line class="st3" x1="677.9" y1="433.4" x2="677.9" y2="424.4"/>
		</g>
		<g>
			<line class="st3" x1="756.4" y1="379.4" x2="765.4" y2="379.4"/>
			<line class="st3" x1="760.9" y1="383.9" x2="760.9" y2="374.9"/>
		</g>
		<g>
			<line class="st3" x1="591.3" y1="379.4" x2="600.3" y2="379.4"/>
			<line class="st3" x1="595.8" y1="383.9" x2="595.8" y2="374.9"/>
		</g>
	</g>
	<g>
		<g>
			<line class="st3" x1="402.9" y1="329.9" x2="411.9" y2="329.9"/>
			<line class="st3" x1="407.4" y1="334.4" x2="407.4" y2="325.4"/>
		</g>
		<g>
			<line class="st3" x1="402.9" y1="428.9" x2="411.9" y2="428.9"/>
			<line class="st3" x1="407.4" y1="433.4" x2="407.4" y2="424.4"/>
		</g>
		<g>
			<line class="st3" x1="485.9" y1="379.4" x2="494.9" y2="379.4"/>
			<line class="st3" x1="490.4" y1="383.9" x2="490.4" y2="374.9"/>
		</g>
		<g>
			<line class="st3" x1="320.8" y1="379.4" x2="329.8" y2="379.4"/>
			<line class="st3" x1="325.3" y1="383.9" x2="325.3" y2="374.9"/>
		</g>
	</g>
	<g>
		<g>
			<line class="st3" x1="132.4" y1="329.9" x2="141.4" y2="329.9"/>
			<line class="st3" x1="136.9" y1="334.4" x2="136.9" y2="325.4"/>
		</g>
		<g>
			<line class="st3" x1="132.4" y1="428.9" x2="141.4" y2="428.9"/>
			<line class="st3" x1="136.9" y1="433.4" x2="136.9" y2="424.4"/>
		</g>
		<g>
			<line class="st3" x1="215.4" y1="379.4" x2="224.4" y2="379.4"/>
			<line class="st3" x1="219.9" y1="383.9" x2="219.9" y2="374.9"/>
		</g>
		<g>
			<line class="st3" x1="50.3" y1="379.4" x2="59.3" y2="379.4"/>
			<line class="st3" x1="54.8" y1="383.9" x2="54.8" y2="374.9"/>
		</g>
	</g>
	<g>
		<g>
			<line class="st4" x1="1755.4" y1="329.9" x2="1764.4" y2="329.9"/>
			<line class="st4" x1="1759.9" y1="334.4" x2="1759.9" y2="325.4"/>
		</g>
		<g>
			<line class="st4" x1="1755.4" y1="428.9" x2="1764.4" y2="428.9"/>
			<line class="st4" x1="1759.9" y1="433.4" x2="1759.9" y2="424.4"/>
		</g>
		<g>
			<line class="st4" x1="1838.4" y1="379.4" x2="1847.4" y2="379.4"/>
			<line class="st4" x1="1842.9" y1="383.9" x2="1842.9" y2="374.9"/>
		</g>
		<g>
			<line class="st4" x1="1673.3" y1="379.4" x2="1682.3" y2="379.4"/>
			<line class="st4" x1="1677.8" y1="383.9" x2="1677.8" y2="374.9"/>
		</g>
	</g>
	<g>
		<g>
			<line class="st3" x1="1484.9" y1="329.9" x2="1493.9" y2="329.9"/>
			<line class="st3" x1="1489.4" y1="334.4" x2="1489.4" y2="325.4"/>
		</g>
		<g>
			<line class="st3" x1="1484.9" y1="428.9" x2="1493.9" y2="428.9"/>
			<line class="st3" x1="1489.4" y1="433.4" x2="1489.4" y2="424.4"/>
		</g>
		<g>
			<line class="st3" x1="1567.9" y1="379.4" x2="1576.9" y2="379.4"/>
			<line class="st3" x1="1572.4" y1="383.9" x2="1572.4" y2="374.9"/>
		</g>
		<g>
			<line class="st3" x1="1402.8" y1="379.4" x2="1411.8" y2="379.4"/>
			<line class="st3" x1="1407.3" y1="383.9" x2="1407.3" y2="374.9"/>
		</g>
	</g>
	<g>
		<g>
			<line class="st3" x1="1214.4" y1="329.9" x2="1223.4" y2="329.9"/>
			<line class="st3" x1="1218.9" y1="334.4" x2="1218.9" y2="325.4"/>
		</g>
		<g>
			<line class="st3" x1="1214.4" y1="428.9" x2="1223.4" y2="428.9"/>
			<line class="st3" x1="1218.9" y1="433.4" x2="1218.9" y2="424.4"/>
		</g>
		<g>
			<line class="st3" x1="1297.4" y1="379.4" x2="1306.4" y2="379.4"/>
			<line class="st3" x1="1301.9" y1="383.9" x2="1301.9" y2="374.9"/>
		</g>
		<g>
			<line class="st3" x1="1132.3" y1="379.4" x2="1141.3" y2="379.4"/>
			<line class="st3" x1="1136.8" y1="383.9" x2="1136.8" y2="374.9"/>
		</g>
	</g>
	<g>
		<g>
			<line class="st3" x1="1093.9" y1="188.2" x2="1102.9" y2="188.2"/>
			<line class="st3" x1="1098.4" y1="192.7" x2="1098.4" y2="183.7"/>
		</g>
		<g>
			<line class="st3" x1="1093.9" y1="287.1" x2="1102.9" y2="287.1"/>
			<line class="st3" x1="1098.4" y1="291.6" x2="1098.4" y2="282.6"/>
		</g>
		<g>
			<line class="st3" x1="1176.9" y1="237.6" x2="1185.9" y2="237.6"/>
			<line class="st3" x1="1181.4" y1="242.1" x2="1181.4" y2="233.1"/>
		</g>
		<g>
			<line class="st3" x1="1011.8" y1="237.6" x2="1020.8" y2="237.6"/>
			<line class="st3" x1="1016.3" y1="242.1" x2="1016.3" y2="233.1"/>
		</g>
	</g>
	<g>
		<g>
			<line class="st3" x1="823.4" y1="188.1" x2="832.4" y2="188.1"/>
			<line class="st3" x1="827.9" y1="192.6" x2="827.9" y2="183.6"/>
		</g>
		<g>
			<line class="st3" x1="823.4" y1="287.1" x2="832.4" y2="287.1"/>
			<line class="st3" x1="827.9" y1="291.6" x2="827.9" y2="282.6"/>
		</g>
		<g>
			<line class="st3" x1="906.4" y1="237.5" x2="915.4" y2="237.5"/>
			<line class="st3" x1="910.9" y1="242" x2="910.9" y2="233"/>
		</g>
		<g>
			<line class="st3" x1="741.3" y1="237.5" x2="750.3" y2="237.5"/>
			<line class="st3" x1="745.8" y1="242" x2="745.8" y2="233"/>
		</g>
	</g>
	<g>
		<g>
			<line class="st3" x1="552.9" y1="188.1" x2="561.9" y2="188.1"/>
			<line class="st3" x1="557.4" y1="192.6" x2="557.4" y2="183.6"/>
		</g>
		<g>
			<line class="st3" x1="552.9" y1="287.1" x2="561.9" y2="287.1"/>
			<line class="st3" x1="557.4" y1="291.6" x2="557.4" y2="282.6"/>
		</g>
		<g>
			<line class="st3" x1="635.9" y1="237.5" x2="644.9" y2="237.5"/>
			<line class="st3" x1="640.4" y1="242" x2="640.4" y2="233"/>
		</g>
		<g>
			<line class="st3" x1="470.8" y1="237.5" x2="479.8" y2="237.5"/>
			<line class="st3" x1="475.3" y1="242" x2="475.3" y2="233"/>
		</g>
	</g>
	<g>
		<g>
			<line class="st3" x1="282.4" y1="188.1" x2="291.4" y2="188.1"/>
			<line class="st3" x1="286.9" y1="192.6" x2="286.9" y2="183.6"/>
		</g>
		<g>
			<line class="st3" x1="282.4" y1="287.1" x2="291.4" y2="287.1"/>
			<line class="st3" x1="286.9" y1="291.6" x2="286.9" y2="282.6"/>
		</g>
		<g>
			<line class="st3" x1="365.4" y1="237.5" x2="374.4" y2="237.5"/>
			<line class="st3" x1="369.9" y1="242" x2="369.9" y2="233"/>
		</g>
		<g>
			<line class="st3" x1="200.3" y1="237.5" x2="209.3" y2="237.5"/>
			<line class="st3" x1="204.8" y1="242" x2="204.8" y2="233"/>
		</g>
	</g>
	<g>
		<g>
			<line class="st3" x1="-32.7" y1="188.1" x2="-23.7" y2="188.1"/>
			<line class="st3" x1="-28.2" y1="192.6" x2="-28.2" y2="183.6"/>
		</g>
		<g>
			<line class="st3" x1="-32.7" y1="287.1" x2="-23.7" y2="287.1"/>
			<line class="st3" x1="-28.2" y1="291.6" x2="-28.2" y2="282.6"/>
		</g>
		<g>
			<line class="st3" x1="50.3" y1="237.5" x2="59.3" y2="237.5"/>
			<line class="st3" x1="54.8" y1="242" x2="54.8" y2="233"/>
		</g>
		<g>
			<line class="st3" x1="-114.8" y1="237.5" x2="-105.8" y2="237.5"/>
			<line class="st3" x1="-110.3" y1="242" x2="-110.3" y2="233"/>
		</g>
	</g>
	<g>
		<g>
			<line class="st3" x1="1925" y1="188.1" x2="1934" y2="188.1"/>
			<line class="st3" x1="1929.5" y1="192.6" x2="1929.5" y2="183.6"/>
		</g>
		<g>
			<line class="st3" x1="1925" y1="287.1" x2="1934" y2="287.1"/>
			<line class="st3" x1="1929.5" y1="291.6" x2="1929.5" y2="282.6"/>
		</g>
		<g>
			<line class="st3" x1="2007.9" y1="237.5" x2="2016.9" y2="237.5"/>
			<line class="st3" x1="2012.4" y1="242" x2="2012.4" y2="233"/>
		</g>
		<g>
			<line class="st3" x1="1842.9" y1="237.5" x2="1851.9" y2="237.5"/>
			<line class="st3" x1="1847.4" y1="242" x2="1847.4" y2="233"/>
		</g>
	</g>
	<g>
		<g>
			<line class="st3" x1="1634.9" y1="188.1" x2="1643.9" y2="188.1"/>
			<line class="st3" x1="1639.4" y1="192.6" x2="1639.4" y2="183.6"/>
		</g>
		<g>
			<line class="st3" x1="1634.9" y1="287.1" x2="1643.9" y2="287.1"/>
			<line class="st3" x1="1639.4" y1="291.6" x2="1639.4" y2="282.6"/>
		</g>
		<g>
			<line class="st3" x1="1717.9" y1="237.5" x2="1726.9" y2="237.5"/>
			<line class="st3" x1="1722.4" y1="242" x2="1722.4" y2="233"/>
		</g>
		<g>
			<line class="st3" x1="1552.8" y1="237.5" x2="1561.8" y2="237.5"/>
			<line class="st3" x1="1557.3" y1="242" x2="1557.3" y2="233"/>
		</g>
	</g>
	<g>
		<g>
			<line class="st3" x1="1364.4" y1="188.1" x2="1373.4" y2="188.1"/>
			<line class="st3" x1="1368.9" y1="192.6" x2="1368.9" y2="183.6"/>
		</g>
		<g>
			<line class="st3" x1="1364.4" y1="287.1" x2="1373.4" y2="287.1"/>
			<line class="st3" x1="1368.9" y1="291.6" x2="1368.9" y2="282.6"/>
		</g>
		<g>
			<line class="st3" x1="1447.4" y1="237.5" x2="1456.4" y2="237.5"/>
			<line class="st3" x1="1451.9" y1="242" x2="1451.9" y2="233"/>
		</g>
		<g>
			<line class="st3" x1="1282.3" y1="237.5" x2="1291.3" y2="237.5"/>
			<line class="st3" x1="1286.8" y1="242" x2="1286.8" y2="233"/>
		</g>
	</g>
</g>
<g id="nuvens">
	<g>
		<defs>
			<rect id="SVGID_1_" y="1" width="1919.9" height="498"/>
		</defs>
		<clipPath id="SVGID_2_">
			<use xlink:href="#SVGID_1_"  style="overflow:visible;"/>
		</clipPath>
		<g class="st5">
			<circle class="st4" cx="-0.1" cy="447.6" r="99"/>
			<circle class="st4" cx="444.9" cy="476.8" r="92.5"/>
			<circle class="st4" cx="1919.9" cy="447.6" r="99"/>
			<circle class="st4" cx="123" cy="447.6" r="65.2"/>
			<circle class="st4" cx="166.5" cy="488.1" r="65.2"/>
			<circle class="st4" cx="265.5" cy="435.8" r="65.2"/>
			<circle class="st4" cx="246.4" cy="488.1" r="65.2"/>
			<circle class="st4" cx="577.5" cy="490" r="65.2"/>
			<circle class="st4" cx="656.4" cy="449.5" r="65.2"/>
			<circle class="st4" cx="950.3" cy="477.1" r="62.1"/>
			<circle class="st4" cx="1032" cy="452.2" r="65.2"/>
			<circle class="st4" cx="1134.7" cy="493.8" r="91.9"/>
			<circle class="st4" cx="1215.9" cy="452.2" r="27.1"/>
			<circle class="st4" cx="1254.3" cy="490" r="48.4"/>
			<circle class="st4" cx="1489.7" cy="477.1" r="48.4"/>
			<circle class="st4" cx="1346.4" cy="499" r="70.3"/>
			<circle class="st4" cx="1428.9" cy="477.1" r="70.3"/>
			<circle class="st4" cx="1625.5" cy="481.3" r="70.3"/>
			<circle class="st4" cx="1789.4" cy="473.2" r="70.3"/>
			<circle class="st4" cx="866.4" cy="488.1" r="65.2"/>
			<circle class="st4" cx="762.9" cy="501.8" r="65.2"/>
			<circle class="st4" cx="819.1" cy="440" r="44.9"/>
			<circle class="st4" cx="1538.2" cy="499" r="44.9"/>
			<circle class="st4" cx="1713.8" cy="465.1" r="44.9"/>
			<circle class="st4" cx="708.5" cy="470.3" r="44.9"/>
			<circle class="st4" cx="345" cy="439.9" r="50.1"/>
			<circle class="st4" cx="324.1" cy="477.1" r="50.1"/>
		</g>
	</g>
	<g>
		<defs>
			<rect id="SVGID_3_" y="210.7" width="1919.9" height="289.3"/>
		</defs>
		<clipPath id="SVGID_4_">
			<use xlink:href="#SVGID_3_"  style="overflow:visible;"/>
		</clipPath>
		<g class="st6">
			<circle class="st7" cx="19.9" cy="487.3" r="99"/>
			<circle class="st7" cx="464.9" cy="516.5" r="92.5"/>
			<circle class="st7" cx="1939.9" cy="487.3" r="99"/>
			<circle class="st7" cx="143" cy="487.3" r="65.2"/>
			<circle class="st7" cx="186.5" cy="527.8" r="65.2"/>
			<circle class="st7" cx="285.5" cy="475.4" r="65.2"/>
			<circle class="st7" cx="266.4" cy="527.8" r="65.2"/>
			<circle class="st7" cx="597.5" cy="529.7" r="65.2"/>
			<circle class="st7" cx="676.4" cy="489.2" r="65.2"/>
			<circle class="st7" cx="970.3" cy="516.8" r="62.1"/>
			<circle class="st7" cx="1052" cy="491.9" r="65.2"/>
			<circle class="st7" cx="1154.7" cy="533.5" r="91.9"/>
			<circle class="st7" cx="1235.9" cy="491.9" r="27.1"/>
			<circle class="st7" cx="1274.3" cy="529.7" r="48.4"/>
			<circle class="st7" cx="1509.7" cy="516.8" r="48.4"/>
			<circle class="st7" cx="1366.4" cy="538.7" r="70.3"/>
			<circle class="st7" cx="1448.9" cy="516.8" r="70.3"/>
			<circle class="st7" cx="1645.5" cy="521" r="70.3"/>
			<circle class="st7" cx="1809.4" cy="512.9" r="70.3"/>
			<circle class="st7" cx="886.4" cy="527.8" r="65.2"/>
			<circle class="st7" cx="782.9" cy="541.5" r="65.2"/>
			<circle class="st7" cx="839.1" cy="479.7" r="44.9"/>
			<circle class="st7" cx="1558.2" cy="538.7" r="44.9"/>
			<circle class="st7" cx="1733.8" cy="504.7" r="44.9"/>
			<circle class="st7" cx="728.5" cy="510" r="44.9"/>
			<circle class="st7" cx="365" cy="479.6" r="50.1"/>
			<circle class="st7" cx="344.1" cy="516.8" r="50.1"/>
		</g>
	</g>
</g>
<g id="icons">
	<g>
		<path class="st8" d="M1351.8,356.9l2.7,16.3c0.3,1.9,2.4,2.9,4,2l3.1-1.7c1-0.6,1.6-1.7,1.4-2.9l-3-17.7L1351.8,356.9z"/>
		<path class="st8" d="M1344.8,361.7l4.6-2.5l-5.3-9.9l-4.6,2.5c-1.2,0.6-1.6,2.1-1,3.2l3,5.6
			C1342.2,361.8,1343.7,362.3,1344.8,361.7z"/>
		<g>
			<path class="st8" d="M1371.4,317.3l-5.7,3.1l19.7,36.6l5.7-3.1c0.7-0.4,1-1.3,0.6-2.1l-18.3-34
				C1373.1,317.2,1372.2,316.9,1371.4,317.3z"/>
			<path class="st8" d="M1365.7,320.4c0,0-8.9,22.1-16.2,26l-5.4,2.9l1.7,3.1l2,3.7l1.7,3.1l5.4-2.9c7.4-4,30.7,0.7,30.7,0.7l0,0
				L1365.7,320.4L1365.7,320.4z"/>
		</g>
		<path class="st8" d="M1387.9,335.9c0.2-0.1,0.5-0.1,0.7,0l10.4,4.1c0.4,0.2,0.6,0.7,0.5,1.1c-0.2,0.4-0.7,0.6-1.1,0.5l-10.4-4.1
			c-0.4-0.2-0.6-0.7-0.5-1.1C1387.6,336.1,1387.8,335.9,1387.9,335.9z"/>
		<path class="st8" d="M1386.5,317.4c0.2-0.1,0.4-0.1,0.6-0.1c0.5,0.1,0.7,0.6,0.6,1l-2.5,10.9c-0.1,0.5-0.6,0.7-1,0.6
			c-0.5-0.1-0.7-0.6-0.6-1l2.5-10.9C1386.1,317.7,1386.3,317.5,1386.5,317.4z"/>
		<path class="st8" d="M1386.4,331.6l10.8-5.7c0.4-0.2,0.9-0.1,1.1,0.4c0.2,0.4,0.1,0.9-0.4,1.1l-10.8,5.7c-0.4,0.2-0.9,0.1-1.1-0.4
			C1385.8,332.3,1386,331.8,1386.4,331.6z"/>
	</g>
	<g>
		<g>
			<g>
				<path class="st8" d="M1086.8,350.6c4-5.5,7.3-15.1,16.4-12.5c8,2.3,7.2,11.6,7.5,19.3c0.3,10.2-9.1,14.6-16.4,12.5
					C1086.8,367.8,1081.2,358.4,1086.8,350.6z"/>
				<path class="st8" d="M1098.2,332.1c0.3-1,1.3-1.6,2.3-1.3l8.3,2.3c1,0.3,1.6,1.3,1.3,2.3l-0.1,0.2c-0.3,1-1.3,1.6-2.3,1.3
					l-8.3-2.3c-1-0.3-1.6-1.3-1.3-2.3L1098.2,332.1z"/>
				<path class="st8" d="M1099.8,326.5c0.3-1,1.3-1.6,2.3-1.3l8.3,2.3c1,0.3,1.6,1.3,1.3,2.3l-0.1,0.2c-0.3,1-1.3,1.6-2.3,1.3
					l-8.3-2.3c-1-0.3-1.6-1.3-1.3-2.3L1099.8,326.5z"/>
				<path class="st8" d="M1101.3,321c0.3-1,1.3-1.6,2.3-1.3l8.3,2.3c1,0.3,1.6,1.3,1.3,2.3l-0.1,0.2c-0.3,1-1.3,1.6-2.3,1.3
					l-8.3-2.3c-1-0.3-1.6-1.3-1.3-2.3L1101.3,321z"/>
			</g>
		</g>
		<line class="st9" x1="1081.3" y1="364.3" x2="1074.6" y2="365.6"/>
		<line class="st9" x1="1106.3" y1="371.8" x2="1111.2" y2="376.6"/>
		<line class="st9" x1="1092.8" y1="373.9" x2="1091.4" y2="378.7"/>
	</g>
	<g>
		<path class="st8" d="M570.2,300.7c3.4-2.1,7.2-3.4,11.5-4c4.3-0.6,8.3-0.4,12.2,0.5c3.8,1,7,2.7,9.5,5c2.5,2.3,4,5,4.4,8.1
			c0.5,3.1-0.2,6.1-1.9,9.1c-1.7,2.9-4.3,5.4-7.7,7.5c-3.4,2.1-7.2,3.4-11.5,4c-1.9,0.3-3.9,0.4-6,0.3c-2.5,2.4-5.4,4.3-8.7,5.7
			c-0.8,0.3-1.7,0.6-2.8,1l-0.1,0c-0.2,0-0.5,0-0.7-0.2c-0.2-0.1-0.4-0.4-0.5-0.6c0-0.1-0.1-0.1-0.1-0.2s0-0.2,0-0.2
			c0-0.1,0-0.1,0-0.2c0-0.1,0-0.1,0.1-0.2c0,0,0-0.1,0.1-0.2s0.1-0.1,0.1-0.2c0,0,0.1-0.1,0.1-0.2c0.1-0.1,0.1-0.1,0.1-0.2
			c0.1-0.2,0.3-0.5,0.6-1c0.3-0.5,0.6-0.9,0.7-1.1c0.1-0.3,0.3-0.6,0.6-1.1c0.3-0.5,0.5-0.9,0.6-1.4c0.2-0.5,0.3-1,0.5-1.6
			c-3-1.2-5.5-2.9-7.4-5c-1.9-2.1-3.1-4.5-3.5-7.1c-0.5-3.1,0.2-6.1,1.9-9.1C564.3,305.3,566.8,302.8,570.2,300.7z M592.2,301.3
			c-3.1-0.7-6.4-0.8-9.8-0.3s-6.5,1.6-9.3,3.2c-2.8,1.6-4.9,3.5-6.4,5.8c-1.5,2.2-2,4.5-1.7,6.8c0.3,1.8,1.1,3.5,2.6,5
			c1.4,1.5,3.3,2.7,5.6,3.7l3.5,1.4l-0.8,3c0.7-0.6,1.3-1.1,1.9-1.6l1.3-1.3l1.8,0.1c1.8,0.1,3.5,0,5.2-0.3c3.4-0.5,6.5-1.6,9.3-3.1
			c2.8-1.6,4.9-3.5,6.4-5.8c1.5-2.2,2-4.5,1.7-6.8c-0.3-2.3-1.5-4.3-3.6-6C597.9,303.3,595.3,302,592.2,301.3z M615,331.8
			c0.3,0.5,0.6,1,0.9,1.4c0.3,0.4,0.6,0.8,1,1.2c0.4,0.4,0.7,0.7,0.9,0.9c0.2,0.2,0.6,0.5,1,0.9c0.5,0.4,0.8,0.6,0.9,0.7
			c0,0,0.1,0.1,0.2,0.1c0.1,0.1,0.1,0.1,0.2,0.1c0,0,0.1,0.1,0.2,0.1c0.1,0.1,0.1,0.1,0.1,0.2c0,0,0.1,0.1,0.1,0.2
			c0,0.1,0.1,0.1,0.1,0.2c0,0.1,0,0.1,0,0.2c0,0.1,0,0.2,0,0.2c0,0.3-0.1,0.6-0.3,0.8c-0.2,0.2-0.4,0.3-0.7,0.3c-1.1,0-2.1,0-3-0.1
			c-3.6-0.4-6.9-1.4-9.9-2.9c-2,0.7-3.9,1.1-5.8,1.4c-6,0.9-11.5,0.2-16.4-2.1c1.3-0.1,2.3-0.2,3-0.3c3.6-0.5,7-1.5,10.1-3
			c3.2-1.5,5.9-3.4,8.2-5.6c2.5-2.5,4.3-5.1,5.4-8c1.1-2.9,1.4-5.8,1-8.8c-0.3-1.7-0.8-3.4-1.5-5c3.1,1.2,5.7,2.8,7.7,4.9
			c2,2.1,3.2,4.6,3.6,7.3c0.4,2.7,0,5.3-1.3,7.9C619.4,327.5,617.5,329.7,615,331.8z"/>
	</g>
	<g id="Expanded_40_">
		<g>
			<g>
				<path class="st8" d="M1659.8,351.7c-11.1,0-20.1-9-20.1-20.1c0-11.1,9-20.1,20.1-20.1s20.1,9,20.1,20.1
					C1679.9,342.7,1670.9,351.7,1659.8,351.7z M1659.8,313.9c-9.8,0-17.7,8-17.7,17.7c0,9.8,8,17.7,17.7,17.7s17.7-8,17.7-17.7
					C1677.6,321.8,1669.6,313.9,1659.8,313.9z"/>
			</g>
			<g>
				<path class="st8" d="M1659.8,357.6c-6.7,0-13.3-2.5-18.4-7.6l1.7-1.7c9.2,9.2,24.2,9.2,33.4,0c9.2-9.2,9.2-24.2,0-33.4l1.7-1.7
					c10.1,10.1,10.1,26.6,0,36.8C1673.1,355.1,1666.5,357.6,1659.8,357.6z"/>
			</g>
			<g>
				<rect x="1657.5" y="356.4" class="st8" width="2.4" height="4.8"/>
			</g>
			<g>
				<rect x="1659.8" y="356.4" class="st8" width="2.4" height="4.8"/>
			</g>
			<g>
				<path class="st8" d="M1677.5,367.1h-35.4l2.8-2.1c4.3-3.2,9.5-5,14.9-5c5.4,0,10.5,1.7,14.9,5L1677.5,367.1z M1649.8,364.7h20
					c-3.1-1.6-6.5-2.4-10-2.4S1652.9,363.2,1649.8,364.7z"/>
			</g>
			<g>
				<path class="st8" d="M1640.6,352c-0.3,0-0.6-0.1-0.8-0.3c-0.5-0.5-0.5-1.2,0-1.7l3.3-3.3c0.5-0.5,1.2-0.5,1.7,0
					c0.5,0.5,0.5,1.2,0,1.7l-3.3,3.3C1641.2,351.9,1640.9,352,1640.6,352z"/>
			</g>
			<g>
				<path class="st8" d="M1675.7,316.9c-0.3,0-0.6-0.1-0.8-0.3c-0.5-0.5-0.5-1.2,0-1.7l3.3-3.3c0.5-0.5,1.2-0.5,1.7,0
					c0.5,0.5,0.5,1.2,0,1.7l-3.3,3.3C1676.3,316.8,1676,316.9,1675.7,316.9z"/>
			</g>
		</g>
	</g>
	<g id="Expanded_2_">
		<g>
			<g>
				<path class="st8" d="M70.7,304.2c-11.1,0-20.1-9-20.1-20.1c0-11.1,9-20.1,20.1-20.1s20.1,9,20.1,20.1
					C90.8,295.1,81.8,304.2,70.7,304.2z M70.7,266.3c-9.8,0-17.7,8-17.7,17.7c0,9.8,8,17.7,17.7,17.7s17.7-8,17.7-17.7
					C88.4,274.3,80.5,266.3,70.7,266.3z"/>
			</g>
			<g>
				<path class="st8" d="M70.7,310.1c-6.7,0-13.3-2.5-18.4-7.6l1.7-1.7c9.2,9.2,24.2,9.2,33.4,0c9.2-9.2,9.2-24.2,0-33.4l1.7-1.7
					c10.1,10.1,10.1,26.6,0,36.8C84,307.5,77.4,310.1,70.7,310.1z"/>
			</g>
			<g>
				<rect x="68.3" y="308.9" class="st8" width="2.4" height="4.8"/>
			</g>
			<g>
				<rect x="70.7" y="308.9" class="st8" width="2.4" height="4.8"/>
			</g>
			<g>
				<path class="st8" d="M88.4,319.5H53l2.8-2.1c4.3-3.2,9.5-5,14.9-5s10.5,1.7,14.9,5L88.4,319.5z M60.7,317.2h20
					c-3.1-1.6-6.5-2.4-10-2.4S63.8,315.6,60.7,317.2z"/>
			</g>
			<g>
				<path class="st8" d="M51.5,304.5c-0.3,0-0.6-0.1-0.8-0.3c-0.5-0.5-0.5-1.2,0-1.7l3.3-3.3c0.5-0.5,1.2-0.5,1.7,0s0.5,1.2,0,1.7
					l-3.3,3.3C52.1,304.4,51.8,304.5,51.5,304.5z"/>
			</g>
			<g>
				<path class="st8" d="M86.6,269.4c-0.3,0-0.6-0.1-0.8-0.3c-0.5-0.5-0.5-1.2,0-1.7l3.3-3.3c0.5-0.5,1.2-0.5,1.7,0
					c0.5,0.5,0.5,1.2,0,1.7l-3.3,3.3C87.2,269.2,86.9,269.4,86.6,269.4z"/>
			</g>
		</g>
	</g>
	<g id="Expanded_42_">
		<g>
			<g>
				<path class="st8" d="M1800.1,186.4c-9.2,0-16.6-7.4-16.6-16.6v-15.3c0-9.2,7.4-16.6,16.6-16.6c9.2,0,16.6,7.4,16.6,16.6v15.3
					C1816.7,178.9,1809.2,186.4,1800.1,186.4z M1800.1,140.4c-7.7,0-14,6.3-14,14v15.3c0,7.7,6.3,14,14,14c7.7,0,14-6.3,14-14v-15.3
					C1814.1,146.7,1807.8,140.4,1800.1,140.4z"/>
			</g>
			<g>
				<path class="st8" d="M1800.1,191.5c-12.2,0-21.7-9.5-21.7-21.7v-5.1c0-0.7,0.6-1.3,1.3-1.3c0.7,0,1.3,0.6,1.3,1.3v5.1
					c0,10.7,8.4,19.2,19.2,19.2c10.7,0,19.2-8.4,19.2-19.2v-5.1c0-0.7,0.6-1.3,1.3-1.3c0.7,0,1.3,0.6,1.3,1.3v5.1
					C1821.8,182,1812.2,191.5,1800.1,191.5z"/>
			</g>
			<g>
				<rect x="1798.8" y="190.2" class="st8" width="2.6" height="8.9"/>
			</g>
			<g>
				<path class="st8" d="M1800.1,148.1c-0.7,0-1.3-0.6-1.3-1.3v-7.7c0-0.7,0.6-1.3,1.3-1.3c0.7,0,1.3,0.6,1.3,1.3v7.7
					C1801.3,147.5,1800.8,148.1,1800.1,148.1z"/>
			</g>
			<g>
				<path class="st8" d="M1805.2,148.1c-0.7,0-1.3-0.6-1.3-1.3V140c0-0.7,0.6-1.3,1.3-1.3c0.7,0,1.3,0.6,1.3,1.3v6.8
					C1806.4,147.5,1805.9,148.1,1805.2,148.1z"/>
			</g>
			<g>
				<path class="st8" d="M1794.9,148.1c-0.7,0-1.3-0.6-1.3-1.3V140c0-0.7,0.6-1.3,1.3-1.3c0.7,0,1.3,0.6,1.3,1.3v6.8
					C1796.2,147.5,1795.7,148.1,1794.9,148.1z"/>
			</g>
			<g>
				<rect x="1779.6" y="168.5" class="st8" width="40.9" height="2.6"/>
			</g>
			<g>
				<path class="st8" d="M1794.9,155.7h-10.2c-0.7,0-1.3-0.6-1.3-1.3s0.6-1.3,1.3-1.3h10.2c0.7,0,1.3,0.6,1.3,1.3
					S1795.7,155.7,1794.9,155.7z"/>
			</g>
			<g>
				<path class="st8" d="M1794.9,160.9h-10.2c-0.7,0-1.3-0.6-1.3-1.3s0.6-1.3,1.3-1.3h10.2c0.7,0,1.3,0.6,1.3,1.3
					S1795.7,160.9,1794.9,160.9z"/>
			</g>
			<g>
				<path class="st8" d="M1815.4,155.7h-10.2c-0.7,0-1.3-0.6-1.3-1.3s0.6-1.3,1.3-1.3h10.2c0.7,0,1.3,0.6,1.3,1.3
					S1816.1,155.7,1815.4,155.7z"/>
			</g>
			<g>
				<path class="st8" d="M1815.4,160.9h-10.2c-0.7,0-1.3-0.6-1.3-1.3s0.6-1.3,1.3-1.3h10.2c0.7,0,1.3,0.6,1.3,1.3
					S1816.1,160.9,1815.4,160.9z"/>
			</g>
			<g>
				<path class="st8" d="M1794.9,166h-10.2c-0.7,0-1.3-0.6-1.3-1.3c0-0.7,0.6-1.3,1.3-1.3h10.2c0.7,0,1.3,0.6,1.3,1.3
					C1796.2,165.4,1795.7,166,1794.9,166z"/>
			</g>
			<g>
				<path class="st8" d="M1815.4,166h-10.2c-0.7,0-1.3-0.6-1.3-1.3c0-0.7,0.6-1.3,1.3-1.3h10.2c0.7,0,1.3,0.6,1.3,1.3
					C1816.7,165.4,1816.1,166,1815.4,166z"/>
			</g>
		</g>
	</g>
	<g id="Expanded_1_">
		<g>
			<g>
				<path class="st8" d="M304.2,305c-9.2,0-16.6-7.4-16.6-16.6v-15.3c0-9.2,7.4-16.6,16.6-16.6s16.6,7.4,16.6,16.6v15.3
					C320.8,297.6,313.4,305,304.2,305z M304.2,259c-7.7,0-14,6.3-14,14v15.3c0,7.7,6.3,14,14,14s14-6.3,14-14v-15.3
					C318.2,265.3,311.9,259,304.2,259z"/>
			</g>
			<g>
				<path class="st8" d="M304.2,310.1c-12.2,0-21.7-9.5-21.7-21.7v-5.1c0-0.7,0.6-1.3,1.3-1.3c0.7,0,1.3,0.6,1.3,1.3v5.1
					c0,10.7,8.4,19.2,19.2,19.2c10.7,0,19.2-8.4,19.2-19.2v-5.1c0-0.7,0.6-1.3,1.3-1.3s1.3,0.6,1.3,1.3v5.1
					C325.9,300.6,316.4,310.1,304.2,310.1z"/>
			</g>
			<g>
				<rect x="302.9" y="308.9" class="st8" width="2.6" height="8.9"/>
			</g>
			<g>
				<path class="st8" d="M304.2,266.7c-0.7,0-1.3-0.6-1.3-1.3v-7.7c0-0.7,0.6-1.3,1.3-1.3s1.3,0.6,1.3,1.3v7.7
					C305.5,266.1,304.9,266.7,304.2,266.7z"/>
			</g>
			<g>
				<path class="st8" d="M309.3,266.7c-0.7,0-1.3-0.6-1.3-1.3v-6.8c0-0.7,0.6-1.3,1.3-1.3c0.7,0,1.3,0.6,1.3,1.3v6.8
					C310.6,266.1,310,266.7,309.3,266.7z"/>
			</g>
			<g>
				<path class="st8" d="M299.1,266.7c-0.7,0-1.3-0.6-1.3-1.3v-6.8c0-0.7,0.6-1.3,1.3-1.3s1.3,0.6,1.3,1.3v6.8
					C300.4,266.1,299.8,266.7,299.1,266.7z"/>
			</g>
			<g>
				<rect x="283.8" y="287.1" class="st8" width="40.9" height="2.6"/>
			</g>
			<g>
				<path class="st8" d="M299.1,274.4h-10.2c-0.7,0-1.3-0.6-1.3-1.3s0.6-1.3,1.3-1.3h10.2c0.7,0,1.3,0.6,1.3,1.3
					S299.8,274.4,299.1,274.4z"/>
			</g>
			<g>
				<path class="st8" d="M299.1,279.5h-10.2c-0.7,0-1.3-0.6-1.3-1.3s0.6-1.3,1.3-1.3h10.2c0.7,0,1.3,0.6,1.3,1.3
					S299.8,279.5,299.1,279.5z"/>
			</g>
			<g>
				<path class="st8" d="M319.5,274.4h-10.2c-0.7,0-1.3-0.6-1.3-1.3s0.6-1.3,1.3-1.3h10.2c0.7,0,1.3,0.6,1.3,1.3
					S320.2,274.4,319.5,274.4z"/>
			</g>
			<g>
				<path class="st8" d="M319.5,279.5h-10.2c-0.7,0-1.3-0.6-1.3-1.3s0.6-1.3,1.3-1.3h10.2c0.7,0,1.3,0.6,1.3,1.3
					S320.2,279.5,319.5,279.5z"/>
			</g>
			<g>
				<path class="st8" d="M299.1,284.6h-10.2c-0.7,0-1.3-0.6-1.3-1.3s0.6-1.3,1.3-1.3h10.2c0.7,0,1.3,0.6,1.3,1.3
					S299.8,284.6,299.1,284.6z"/>
			</g>
			<g>
				<path class="st8" d="M319.5,284.6h-10.2c-0.7,0-1.3-0.6-1.3-1.3s0.6-1.3,1.3-1.3h10.2c0.7,0,1.3,0.6,1.3,1.3
					S320.2,284.6,319.5,284.6z"/>
			</g>
		</g>
	</g>
</g>
</svg>
