<?xml version="1.0" encoding="utf-8"?>
<!-- Generator: Adobe Illustrator 21.0.0, SVG Export Plug-In . SVG Version: 6.00 Build 0)  -->
<svg version="1.1" xmlns="http://www.w3.org/2000/svg" xmlns:xlink="http://www.w3.org/1999/xlink" x="0px" y="0px"
	 viewBox="0 0 500 276.2" style="enable-background:new 0 0 500 276.2;" xml:space="preserve">
<style type="text/css">
	.st0{display:none;}
	.st1{display:inline;}
	.st2{fill:#30A7E9;stroke:#FFFFFF;stroke-width:5.5085;stroke-linecap:round;stroke-linejoin:round;stroke-miterlimit:10;}
	.st3{fill:#30A7E9;stroke:#FFFFFF;stroke-width:3.177;stroke-linecap:round;stroke-linejoin:round;stroke-miterlimit:10;}
	.st4{fill:none;stroke:#FFFFFF;stroke-width:3.177;stroke-linecap:round;stroke-linejoin:round;stroke-miterlimit:10;}
	
		.st5{display:inline;fill:#30A7E9;stroke:#FFFFFF;stroke-width:5.5085;stroke-linecap:round;stroke-linejoin:round;stroke-miterlimit:10;}
	
		.st6{display:inline;fill:#FFFFFF;stroke:#30A7E9;stroke-width:5.5085;stroke-linecap:round;stroke-linejoin:round;stroke-miterlimit:10;}
	
		.st7{display:inline;fill:#FFFFFF;stroke:#30A7E9;stroke-width:3.9594;stroke-linecap:round;stroke-linejoin:round;stroke-miterlimit:10;}
	
		.st8{display:inline;fill:none;stroke:#30A7E9;stroke-width:3.9594;stroke-linecap:round;stroke-linejoin:round;stroke-miterlimit:10;}
	.st9{fill:#006E99;}
	.st10{fill:#FFFFFF;stroke:#30A7E9;stroke-width:3.3866;stroke-linecap:round;stroke-linejoin:round;stroke-miterlimit:10;}
	.st11{fill:#2D2D2D;}
	.st12{fill:none;stroke:#2D2D2D;stroke-width:3.2948;stroke-miterlimit:10;}
	.st13{fill:none;stroke:#2D2D2D;stroke-width:3.2693;stroke-miterlimit:10;}
</style>
<g id="Layer_1" class="st0">
	<g id="Layer_1_1_">
		<g class="st1">
			<g>
				<g>
					<polygon class="st2" points="41,168 151.1,297.9 232.7,228.9 220.2,214.1 233.9,202.5 136.3,87.3 					"/>
					<polygon class="st2" points="232.7,228.9 233.9,202.5 220.2,214.1 					"/>
				</g>
				
					<rect x="72.3" y="146.9" transform="matrix(0.7629 -0.6466 0.6466 0.7629 -74.1651 112.2725)" class="st3" width="87.4" height="20.7"/>
				<line class="st4" x1="122.3" y1="189.4" x2="146.6" y2="168.8"/>
				<line class="st4" x1="118.6" y1="222" x2="179.4" y2="170.5"/>
				<line class="st4" x1="128.5" y1="233.7" x2="189.3" y2="182.2"/>
				<line class="st4" x1="138.9" y1="246" x2="199.7" y2="194.4"/>
				<line class="st4" x1="148.8" y1="257.6" x2="209.6" y2="206.1"/>
			</g>
			<g>
				<g>
					<polygon class="st2" points="274.6,45.4 253.1,214.3 359.1,227.8 361.5,208.7 379.3,211 398.4,61.2 					"/>
					<polygon class="st2" points="359.1,227.8 379.3,211 361.5,208.7 					"/>
				</g>
				
					<rect x="322.8" y="49.8" transform="matrix(0.1264 -0.992 0.992 0.1264 198.2876 412.0813)" class="st3" width="20.7" height="87.4"/>
				<line class="st4" x1="313.7" y1="119.8" x2="345.2" y2="123.9"/>
				<line class="st4" x1="287.1" y1="139.1" x2="366.1" y2="149.2"/>
				<line class="st4" x1="285.2" y1="154.2" x2="364.2" y2="164.3"/>
				<line class="st4" x1="283.1" y1="170.2" x2="362.2" y2="180.3"/>
				<line class="st4" x1="281.2" y1="185.4" x2="360.2" y2="195.4"/>
			</g>
			<g>
				<g>
					<polygon class="st2" points="65.3,111.7 145.5,261.9 239.8,211.6 230.7,194.5 246.6,186.1 175.4,52.8 					"/>
					<polygon class="st2" points="239.8,211.6 246.6,186.1 230.7,194.5 					"/>
				</g>
				
					<rect x="97.1" y="106.6" transform="matrix(0.8821 -0.4711 0.4711 0.8821 -38.5018 80.1131)" class="st3" width="87.4" height="20.7"/>
				<line class="st4" x1="140.3" y1="149.7" x2="168.3" y2="134.8"/>
				<line class="st4" x1="129.7" y1="180.8" x2="200" y2="143.3"/>
				<line class="st4" x1="136.9" y1="194.3" x2="207.2" y2="156.8"/>
				<line class="st4" x1="144.5" y1="208.5" x2="214.8" y2="171"/>
				<line class="st4" x1="151.7" y1="222" x2="222" y2="184.4"/>
			</g>
			<g>
				<g>
					<polygon class="st2" points="207.8,39.6 224.2,209.1 330.5,198.9 328.7,179.7 346.6,177.9 332.1,27.6 					"/>
					<polygon class="st2" points="330.5,198.9 346.6,177.9 328.7,179.7 					"/>
				</g>
				
					<rect x="231.8" y="63.2" transform="matrix(0.9954 -9.600842e-02 9.600842e-02 0.9954 -5.7887 26.7907)" class="st3" width="87.4" height="20.7"/>
				<line class="st4" x1="262.4" y1="103.6" x2="294.1" y2="100.5"/>
				<line class="st4" x1="240.7" y1="128.2" x2="320" y2="120.6"/>
				<line class="st4" x1="242.2" y1="143.4" x2="321.5" y2="135.8"/>
				<line class="st4" x1="243.7" y1="159.4" x2="323.1" y2="151.8"/>
				<line class="st4" x1="245.2" y1="174.6" x2="324.5" y2="167"/>
			</g>
			<g>
				<g>
					<polygon class="st2" points="117.8,52 171.4,213.7 272.9,180.1 266.8,161.8 283.9,156.1 236.3,12.7 					"/>
					<polygon class="st2" points="272.9,180.1 283.9,156.1 266.8,161.8 					"/>
				</g>
				
					<rect x="147.6" y="59.8" transform="matrix(0.9492 -0.3147 0.3147 0.9492 -12.3587 63.7709)" class="st3" width="87.4" height="20.7"/>
				<line class="st4" x1="185.3" y1="102.3" x2="215.5" y2="92.3"/>
				<line class="st4" x1="169.6" y1="131.1" x2="245.2" y2="106.1"/>
				<line class="st4" x1="174.4" y1="145.6" x2="250.1" y2="120.6"/>
				<line class="st4" x1="179.5" y1="160.9" x2="255.1" y2="135.8"/>
				<line class="st4" x1="184.3" y1="175.4" x2="259.9" y2="150.3"/>
			</g>
		</g>
		<path class="st5" d="M441.3,448.7c0,9.2-8.3,16.6-18.5,16.6H54.5c-10.2,0-18.5-7.4-18.5-16.6V265.5c0-9.2,8.3-16.6,18.5-16.6
			h368.3c10.2,0,18.5,7.4,18.5,16.6V448.7z"/>
		<path class="st5" d="M468.9,468.4c0,10.2-8.3,18.5-18.5,18.5H26.9c-10.2,0-18.5-8.3-18.5-18.5c0,0,35.8-5,46.1-5h368.3
			C433,463.4,468.9,468.4,468.9,468.4z"/>
		<path class="st6" d="M441.3,357.1"/>
		<path class="st6" d="M431.5,435.9c0,8.2-7.9,14.9-17.6,14.9H63.4c-9.7,0-17.6-6.6-17.6-14.9V272.3c0-8.2,7.9-14.9,17.6-14.9h350.5
			c9.7,0,17.6,6.6,17.6,14.9V435.9z"/>
		<rect x="185.1" y="286.7" class="st7" width="108.9" height="25.8"/>
		<line class="st8" x1="219.7" y1="335.3" x2="259.4" y2="335.3"/>
		<line class="st8" x1="189.9" y1="363.3" x2="289.2" y2="363.3"/>
		<line class="st8" x1="189.9" y1="382.3" x2="289.2" y2="382.3"/>
		<line class="st8" x1="189.9" y1="402.4" x2="289.2" y2="402.4"/>
		<line class="st8" x1="189.9" y1="421.4" x2="289.2" y2="421.4"/>
		<g class="st1">
			<g>
				<g>
					<polygon class="st9" points="399,329.5 486.5,236 399,288.6 					"/>
					<polygon class="st9" points="340,272.6 486.5,236 453.9,307.2 413.2,292.9 399,329.5 384.7,282.8 					"/>
					<path class="st9" d="M399,329.5"/>
					<polyline class="st9" points="413.2,292.9 486.5,236 384.7,282.8 					"/>
					<path class="st9" d="M399,329.5"/>
				</g>
			</g>
			<g>
				<polygon class="st10" points="405.3,311.5 492.8,217.9 405.3,270.6 				"/>
				<polygon class="st10" points="346.3,254.6 492.8,217.9 460.3,289.1 419.6,274.9 405.3,311.5 391.1,264.7 				"/>
				<path class="st10" d="M405.3,311.5"/>
				<polyline class="st10" points="419.6,274.9 492.8,217.9 391.1,264.7 				"/>
				<path class="st10" d="M405.3,311.5"/>
			</g>
		</g>
	</g>
	<g id="Layer_2" class="st1">
		<g>
			<g>
				<path class="st11" d="M85.2,123.9H62v-66h3.1v62.9h20.2v3.1H85.2z"/>
				<path class="st11" d="M130.7,57.9v3h-20.6v28.4h17.7v3h-17.7v28.5h20.6v3H107v-66L130.7,57.9L130.7,57.9z"/>
				<path class="st11" d="M178.4,103.7H161l-4.5,20.2h-3.1l5.2-22.9v-0.3l10-42.8h2.4l15.1,66H183L178.4,103.7z M161.8,100.7h16
					l-8-34.5L161.8,100.7z"/>
				<path class="st11" d="M208.6,123.9v-66h11.3c10.5,0,15.3,6.1,15.3,17.8V106c0,11.7-4.8,17.8-15.3,17.8L208.6,123.9L208.6,123.9z
					 M211.6,61v59.9h8.2c8.5,0,12.1-4.6,12.1-14.8V75.7c0-10.2-3.6-14.8-12.1-14.8h-8.2V61z"/>
				<path class="st11" d="M291.8,115.2l8.5-57.3h3.2l-10.5,66h-2.5l-9.7-57.3l-9.7,57.3h-2.4l-10.7-66h3.1l8.8,57.3l9.7-57.3h2.4
					L291.8,115.2z"/>
				<path class="st11" d="M328.9,123.9h-3v-66h3V123.9z"/>
				<path class="st11" d="M352.9,104.9h3v1.5c0,6.6,1.7,10.1,3.8,12c2.2,2,4.9,2.3,7.2,2.3c7,0,11.1-2.9,11.1-11.6
					c0-14.7-25.2-18.7-25.2-35.7c0-9.9,5.1-15.6,14.1-15.6c9.3,0,14.2,6.2,14.2,17.5v1.6H378v-1.6c0-9.9-3.6-14.4-11.1-14.4
					c-7,0-11.1,3.6-11.1,12.1c0,15.7,25.2,18.8,25.2,35.7c0,9.8-5.1,15-14.2,15c-9.4,0-14.1-5.8-14.1-17.4v-1.4H352.9z"/>
				<path class="st11" d="M427.3,57.9v3h-20.6v28.4h17.7v3h-17.7v28.5h20.6v3h-23.7v-66L427.3,57.9L427.3,57.9z"/>
			</g>
			<g>
				<polyline class="st12" points="5.2,130.8 5.2,172 494.4,172 494.4,130.8 				"/>
				<polyline class="st12" points="494.4,40.2 494.4,5.6 5.2,5.6 5.2,40.2 				"/>
			</g>
		</g>
		<g>
			<path class="st11" d="M31.2,251.8H18.9l-4.5,19.7H5.2l16.3-70.6h7.2l16.5,70.6h-9.4L31.2,251.8z M21,242.8h8l-4-17.3L21,242.8z"
				/>
			<path class="st11" d="M79.6,221c0-6.2,1.3-11.1,4-14.6c2-2.6,5.8-5.6,12.7-5.6c6.9,0,10.6,3,12.6,5.6c2.8,3.5,4.1,8.3,4.1,14.6
				v4.5h-9V221c0-5.5-1.2-8.4-2.8-9.8c-1.6-1.3-3.6-1.3-4.9-1.3c-1.4,0-3.3,0-4.9,1.3s-2.9,4.3-2.9,9.8v30.3c0,4.1,0.8,7.2,2.2,9
				c0.3,0.5,0.9,1,1.7,1.4c0.9,0.5,2.1,0.8,3.8,0.8c3.5,0,4.8-1.3,5.6-2.2c1.4-1.9,2.1-4.9,2.1-9v-4.5h9.1v4.5
				c0,6.2-1.3,11-4.1,14.6c-2,2.6-5.7,5.7-12.6,5.7c-3.4,0-6-0.8-8.1-1.9s-3.5-2.5-4.6-3.7c-2.7-3.4-4-8.3-4-14.6
				C79.6,251.4,79.6,221,79.6,221z"/>
			<path class="st11" d="M175.4,251.8h-12.3l-4.5,19.7h-9.3l16.3-70.6h7.2l16.5,70.6h-9.4L175.4,251.8z M165.2,242.8h8l-4-17.3
				L165.2,242.8z"/>
			<path class="st11" d="M223.8,271.5v-70.6h14.1c12.2,0,17.9,7.5,17.9,20.4V251c0,12.9-5.7,20.5-17.9,20.5H223.8z M232.8,209.9
				v52.6h5.1c2.3,0,4.5-0.3,6.1-1.8c1.5-1.5,2.7-4.4,2.7-9.7v-29.7c0-5.3-1.1-8.1-2.7-9.7c-1.6-1.5-3.8-1.7-6.1-1.7L232.8,209.9
				L232.8,209.9z"/>
			<path class="st11" d="M323.1,200.9v9h-20.2v21.7h20.2v9h-20.2v21.8h20.2v9h-29.2v-70.6h29.2V200.9z"/>
			<path class="st11" d="M380.9,271.4l-9.8-33.8v33.8h-9v-70.6h8l14.3,49.7l14.2-49.7h8v70.6h-9v-33.8l-9.8,33.8H380.9z"/>
			<path class="st11" d="M467.9,226.8l14.4-25.9h10.3l-20.2,36.4v34.2h-9v-34.2l-20.1-36.4h10.3L467.9,226.8z"/>
		</g>
	</g>
</g>
<g id="Layer_2_1_">
	<g>
		<g>
			<path class="st11" d="M86.6,123.3H63.5V57.9h3.1v62.4h20V123.3z"/>
			<path class="st11" d="M131.7,57.9v3h-20.5V89h17.6v3h-17.6v28.3h20.5v3h-23.5V57.9H131.7z"/>
			<path class="st11" d="M179,103.3h-17.3l-4.5,20h-3.1l5.1-22.7v-0.3l9.9-42.4h2.4l15,65.5h-3.1L179,103.3z M162.5,100.3h15.8
				l-8-34.2L162.5,100.3z"/>
			<path class="st11" d="M208.9,123.3V57.9h11.2c10.4,0,15.2,6,15.2,17.7v30.1c0,11.7-4.8,17.7-15.2,17.7H208.9z M211.9,60.9v59.4
				h8.2c8.4,0,12-4.6,12-14.7V75.6c0-10.1-3.6-14.7-12-14.7H211.9z"/>
			<path class="st11" d="M291.6,114.7l8.4-56.8h3.2l-10.4,65.5h-2.5l-9.6-56.8l-9.6,56.8h-2.4l-10.6-65.5h3.1l8.7,56.8l9.6-56.8h2.4
				L291.6,114.7z"/>
			<path class="st11" d="M328.4,123.3h-3V57.9h3V123.3z"/>
			<path class="st11" d="M352.2,104.5h3v1.5c0,6.5,1.7,10,3.8,11.9c2.1,1.9,4.9,2.3,7.2,2.3c7,0,11-2.9,11-11.6
				c0-14.6-25-18.5-25-35.4c0-9.8,5-15.4,14-15.4c9.2,0,14.1,6.1,14.1,17.4v1.6h-3.1v-1.6c0-9.8-3.6-14.3-11-14.3c-7,0-11,3.6-11,12
				c0,15.5,25.1,18.6,25.1,35.4c0,9.7-5.1,14.9-14.1,14.9c-9.3,0-14-5.7-14-17.3V104.5z"/>
			<path class="st11" d="M426,57.9v3h-20.5V89h17.6v3h-17.6v28.3H426v3h-23.5V57.9H426z"/>
		</g>
		<g>
			<polyline class="st13" points="7.1,130.2 7.1,171 492.6,171 492.6,130.2 			"/>
			<polyline class="st13" points="492.6,40.3 492.6,5.9 7.1,5.9 7.1,40.3 			"/>
		</g>
	</g>
	<g>
		<path class="st11" d="M53.1,244.4l9.9-44.7h9.2l-15.5,70h-7.2L39.7,225l-9.9,44.8h-7.2l-15.5-70h9.2l9.9,44.7l9.9-44.7h7.2
			L53.1,244.4z"/>
		<path class="st11" d="M129.1,199.7v8.9H109v21.6h20.1v8.9H109v21.7h20.1v8.9h-29v-70H129.1z"/>
		<path class="st11" d="M160,269.8v-70h13.5c6,0,10.4,1.8,13.1,5.3c2.8,3.1,4.1,8,4.1,14.4c0,6.4-1.3,11.1-4.1,14.4
			c-0.1,0.2-0.4,0.5-0.8,0.9c0.4,0.4,0.7,0.7,0.8,0.9c2.8,3.3,4.1,8.1,4.1,14.4c0,6.4-1.3,11.2-4.1,14.4c-2.9,3.5-7.2,5.3-13.1,5.3
			H160z M168.9,208.7v21.6h4.6c2,0,3.5-0.3,4.4-0.8c0.9-0.5,1.5-0.9,1.8-1.3c1.3-1.6,2-4.5,2-8.7c0-4.9-0.9-7.6-2.3-9.1
			c-1.5-1.4-3.6-1.6-5.9-1.6H168.9z M168.9,239.2v21.7h4.6c2.3,0,4.4-0.2,5.9-1.7c1.4-1.4,2.3-4.1,2.3-9c0-5-0.9-7.8-2.4-9.3
			c-1.5-1.4-3.5-1.6-5.8-1.6H168.9z"/>
		<path class="st11" d="M232,269.8h-8.9v-70h8.9V269.8z"/>
		<path class="st11" d="M290,269.7l-17.1-42.4v42.4h-8.9v-70.1h7.5l17.1,42.4v-42.4h9v70.1H290z"/>
		<path class="st11" d="M354.7,250.2h-12.2l-4.5,19.6h-9.2l16.2-70h7.1l16.3,70h-9.3L354.7,250.2z M344.7,241.3h8l-4-17.2
			L344.7,241.3z"/>
		<path class="st11" d="M427.4,269.7h-9V249c0-6.2-2.9-9.2-8.9-9.2h-5.6v29.9h-8.9v-70.1h14.5c12.1,0,17.8,6.9,17.8,20
			c0,6.5-1.4,11.4-4.2,14.7c-0.1,0.1-0.3,0.3-0.4,0.5c-0.2,0.2-0.4,0.4-0.6,0.5c3.4,3.3,5.3,7.9,5.3,13.7V269.7z M403.9,230.7h5.6
			c2.4,0,4.1-0.3,5-0.9c0.9-0.6,1.4-1,1.7-1.3c1.4-1.8,2.1-4.7,2.1-8.9c0-4.7-0.8-7.4-2.2-9c-1.5-1.5-3.7-1.9-6.7-1.9h-5.6V230.7z"
			/>
		<path class="st11" d="M459.1,245.4h8.9v4.5c0,4.1,0.8,7,2.2,8.8c0.3,0.5,0.9,0.9,1.7,1.3c0.9,0.5,2.1,0.8,3.9,0.8
			c3.4,0,5.3-1.7,6.5-3.8c1-2.1,1.2-4.8,1.2-6.7c0-3.3-1.1-5.5-2.8-7.1c-1.6-1.5-3.8-2.6-5.8-3.4l-1.7-0.8c-2-0.9-5.4-2.3-8.5-5.2
			c-3.8-3.7-5.7-8.4-5.7-14.1c0-6,1.6-11,4.7-14.5c2.9-3.4,7.1-5.5,12.1-5.5c6.8,0,10.6,3,12.6,5.5c2.8,3.5,4.1,8.4,4.1,14.5v4.5h-9
			v-4.5c0-5.4-1.2-8.4-2.8-9.7c-1.6-1.3-3.6-1.3-4.8-1.3c-3.7,0-5.5,2-6.6,4.5c-1.1,2.5-1.2,5.3-1.2,6.6c0,3.3,1.1,5.5,2.8,7.2
			c1.6,1.7,3.8,2.9,6.1,3.8l1.5,0.7c1.8,0.8,5.2,2,8.3,4.9c3.9,3.6,5.9,8.3,5.9,14c0,10.7-6,19.4-16.7,19.4
			c-11.1,0-16.7-7.3-16.7-19.9V245.4z"/>
	</g>
</g>
</svg>
