<?xml version="1.0" encoding="utf-8"?>
<!-- Generator: Adobe Illustrator 20.1.0, SVG Export Plug-In . SVG Version: 6.00 Build 0)  -->
<svg version="1.1" id="Layer_1" xmlns="http://www.w3.org/2000/svg" xmlns:xlink="http://www.w3.org/1999/xlink" x="0px" y="0px"
	 viewBox="0 0 229.2 83.8" style="enable-background:new 0 0 229.2 83.8;" xml:space="preserve">
<style type="text/css">
	.st0{fill:#2D2D2D;}
	.st1{fill:none;stroke:#2D2D2D;stroke-width:2;stroke-miterlimit:10;}
</style>
<g>
	<g>
		<path class="st0" d="M39.1,58.3H28.5V28.2h1.4v28.7h9.2V58.3z"/>
		<path class="st0" d="M59.9,28.2v1.4h-9.4v13h8.1v1.4h-8.1v13h9.4v1.4H49.1V28.2H59.9z"/>
		<path class="st0" d="M81.7,49.1h-8l-2.1,9.2h-1.4l2.4-10.5v-0.1l4.6-19.5h1.1l6.9,30.1h-1.4L81.7,49.1z M74.1,47.7h7.3L77.7,32
			L74.1,47.7z"/>
		<path class="st0" d="M95.4,58.3V28.2h5.1c4.8,0,7,2.8,7,8.1v13.9c0,5.4-2.2,8.1-7,8.1H95.4z M96.8,29.6v27.4h3.8
			c3.9,0,5.5-2.1,5.5-6.7V36.3c0-4.6-1.7-6.7-5.5-6.7H96.8z"/>
		<path class="st0" d="M133.5,54.3l3.9-26.1h1.5l-4.8,30.1h-1.2l-4.4-26.1L124,58.3h-1.1l-4.9-30.1h1.4l4,26.1l4.4-26.1h1.1
			L133.5,54.3z"/>
		<path class="st0" d="M150.4,58.3H149V28.2h1.4V58.3z"/>
		<path class="st0" d="M161.4,49.6h1.4v0.7c0,3,0.8,4.6,1.7,5.5c1,0.9,2.2,1.1,3.3,1.1c3.2,0,5.1-1.3,5.1-5.3
			c0-6.7-11.5-8.5-11.5-16.3c0-4.5,2.3-7.1,6.4-7.1c4.2,0,6.5,2.8,6.5,8v0.7h-1.4v-0.7c0-4.5-1.7-6.6-5.1-6.6
			c-3.2,0-5.1,1.7-5.1,5.5c0,7.2,11.5,8.6,11.5,16.3c0,4.5-2.3,6.8-6.5,6.8c-4.3,0-6.4-2.6-6.4-8V49.6z"/>
		<path class="st0" d="M195.3,28.2v1.4h-9.4v13h8.1v1.4h-8.1v13h9.4v1.4h-10.8V28.2H195.3z"/>
	</g>
	<g>
		<polyline class="st1" points="2.8,61.8 2.8,80.8 225.8,80.8 225.8,61.8 		"/>
		<polyline class="st1" points="225.8,19.8 225.8,4.8 2.8,4.8 2.8,19.8 		"/>
	</g>
</g>
</svg>
