<?xml version="1.0" encoding="utf-8"?>
<!-- Generator: Adobe Illustrator 21.0.0, SVG Export Plug-In . SVG Version: 6.00 Build 0)  -->
<svg version="1.1" xmlns="http://www.w3.org/2000/svg" xmlns:xlink="http://www.w3.org/1999/xlink" x="0px" y="0px"
	 viewBox="0 0 100 100" style="enable-background:new 0 0 100 100;" xml:space="preserve">
<style type="text/css">
	.st0{display:none;}
	.st1{display:inline;}
	.st2{fill:#FFFFFF;stroke:#30A7E9;stroke-linecap:round;stroke-linejoin:round;stroke-miterlimit:10;}
	.st3{fill:#FFFFFF;stroke:#30A7E9;stroke-width:1.5;stroke-linecap:round;stroke-linejoin:round;stroke-miterlimit:10;}
</style>
<g id="Change_Work" class="st0">
	<g class="st1">
		<g>
			<g>
				<path class="st2" d="M34,56.1c3.1-8.7,3.6-22.6,16.5-22.8c11.3-0.2,14,12.3,17.3,22.2c4.4,13.2-6.2,22.6-16.5,22.8
					C40.7,78.5,29.7,68.5,34,56.1z"/>
				<path class="st2" d="M41.6,27.4c0-1.4,1.1-2.6,2.5-2.6l11.7-0.2c1.4,0,2.6,1.1,2.6,2.5l0,0.3c0,1.4-1.1,2.6-2.5,2.6l-11.7,0.2
					c-1.4,0-2.6-1.1-2.6-2.5L41.6,27.4z"/>
				<path class="st2" d="M41.4,19.6c0-1.4,1.1-2.6,2.5-2.6l11.7-0.2c1.4,0,2.6,1.1,2.6,2.5l0,0.3c0,1.4-1.1,2.6-2.5,2.6L44,22.4
					c-1.4,0-2.6-1.1-2.6-2.5L41.4,19.6z"/>
				<path class="st2" d="M41.3,11.8c0-1.4,1.1-2.6,2.5-2.6L55.5,9c1.4,0,2.6,1.1,2.6,2.5l0,0.3c0,1.4-1.1,2.6-2.5,2.6l-11.7,0.2
					c-1.4,0-2.6-1.1-2.6-2.5L41.3,11.8z"/>
			</g>
		</g>
		<line class="st2" x1="32.2" y1="76.2" x2="23.9" y2="80.4"/>
		<line class="st2" x1="67.7" y1="76.2" x2="76" y2="80.4"/>
		<line class="st2" x1="50.9" y1="84.1" x2="50.9" y2="90.9"/>
	</g>
</g>
<g id="Layer_2">
	<g>
		<polygon class="st3" points="25.4,10.6 25.4,79.4 68.6,79.4 68.6,71.6 75.9,71.6 75.9,10.6 		"/>
		<polygon class="st3" points="68.6,79.4 75.9,71.6 68.6,71.6 		"/>
	</g>
	<polygon class="st3" points="44.7,95.3 40.6,92 36.6,95.3 36.6,5.5 44.7,5.5 	"/>
</g>
</svg>
