<?xml version="1.0" encoding="utf-8"?>
<!-- Generator: Adobe Illustrator 21.0.0, SVG Export Plug-In . SVG Version: 6.00 Build 0)  -->
<svg version="1.1" xmlns="http://www.w3.org/2000/svg" xmlns:xlink="http://www.w3.org/1999/xlink" x="0px" y="0px"
	 viewBox="0 0 100 100" style="enable-background:new 0 0 100 100;" xml:space="preserve">
<style type="text/css">
	.st0{fill:#FFFFFF;stroke:#30A7E9;stroke-width:1.5;stroke-linecap:round;stroke-linejoin:round;stroke-miterlimit:10;}
	.st1{display:none;}
	.st2{display:inline;}
	
		.st3{display:inline;fill:#FFFFFF;stroke:#30A7E9;stroke-width:1.5;stroke-linecap:round;stroke-linejoin:round;stroke-miterlimit:10;}
</style>
<g id="Change_Work">
	<g>
		<g>
			<g>
				<path class="st0" d="M34,56.1c3.1-8.7,3.6-22.6,16.5-22.8c11.3-0.2,14,12.3,17.3,22.2c4.4,13.2-6.2,22.6-16.5,22.8
					C40.7,78.5,29.7,68.5,34,56.1z"/>
				<path class="st0" d="M41.6,27.4c0-1.4,1.1-2.6,2.5-2.6l11.7-0.2c1.4,0,2.6,1.1,2.6,2.5l0,0.3c0,1.4-1.1,2.6-2.5,2.6l-11.7,0.2
					c-1.4,0-2.6-1.1-2.6-2.5L41.6,27.4z"/>
				<path class="st0" d="M41.4,19.6c0-1.4,1.1-2.6,2.5-2.6l11.7-0.2c1.4,0,2.6,1.1,2.6,2.5l0,0.3c0,1.4-1.1,2.6-2.5,2.6L44,22.4
					c-1.4,0-2.6-1.1-2.6-2.5L41.4,19.6z"/>
				<path class="st0" d="M41.3,11.8c0-1.4,1.1-2.6,2.5-2.6L55.5,9c1.4,0,2.6,1.1,2.6,2.5l0,0.3c0,1.4-1.1,2.6-2.5,2.6l-11.7,0.2
					c-1.4,0-2.6-1.1-2.6-2.5L41.3,11.8z"/>
			</g>
		</g>
		<line class="st0" x1="32.2" y1="76.2" x2="23.9" y2="80.4"/>
		<line class="st0" x1="67.7" y1="76.2" x2="76" y2="80.4"/>
		<line class="st0" x1="50.9" y1="84.1" x2="50.9" y2="90.9"/>
	</g>
</g>
<g id="Academy" class="st1">
	<g class="st2">
		<polygon class="st0" points="25.4,10.6 25.4,79.4 68.6,79.4 68.6,71.6 75.9,71.6 75.9,10.6 		"/>
		<polygon class="st0" points="68.6,79.4 75.9,71.6 68.6,71.6 		"/>
	</g>
	<polygon class="st3" points="44.7,95.3 40.6,92 36.6,95.3 36.6,5.5 44.7,5.5 	"/>
</g>
<g id="Blog" class="st1">
	<g class="st2">
		<polygon class="st0" points="13.1,85.9 73.1,13.3 82,20.3 22,92.9 		"/>
		<rect x="13.5" y="85.4" transform="matrix(0.9933 -0.1159 0.1159 0.9933 -10.2489 2.6256)" class="st0" width="7.9" height="8"/>
		<polygon class="st0" points="13.1,85.9 22.1,74.9 24.2,80.9 31.1,81.8 22,92.9 		"/>
		<rect x="75.7" y="7.2" transform="matrix(0.6204 -0.7843 0.7843 0.6204 20.5012 68.1557)" class="st0" width="10" height="11.3"/>
	</g>
</g>
<g id="Newsletter" class="st1">
	<g class="st2">
		<polygon class="st0" points="41.1,80.3 97.3,20.2 41.1,54 		"/>
		<polygon class="st0" points="3.2,43.7 97.3,20.2 76.4,65.9 50.2,56.8 41.1,80.3 31.9,50.3 		"/>
		<path class="st0" d="M41.1,80.3"/>
		<polyline class="st0" points="50.2,56.8 97.3,20.2 31.9,50.3 		"/>
		<path class="st0" d="M41.1,80.3"/>
	</g>
</g>
</svg>
